<svg width="26" height="22" viewBox="0 0 26 22" fill="none" xmlns="http://www.w3.org/2000/svg">
<path d="M14 18.5C14 17.8078 13.7947 17.1311 13.4101 16.5555C13.0256 15.9799 12.4789 15.5313 11.8394 15.2664C11.1999 15.0015 10.4961 14.9322 9.81718 15.0673C9.13825 15.2023 8.51461 15.5356 8.02513 16.0251C7.53564 16.5146 7.2023 17.1383 7.06725 17.8172C6.9322 18.4961 7.00151 19.1999 7.26642 19.8394C7.53133 20.4789 7.97993 21.0256 8.5555 21.4101C9.13108 21.7947 9.80777 22 10.5 22C11.4283 22 12.3185 21.6313 12.9749 20.9749C13.6313 20.3185 14 19.4283 14 18.5ZM9 18.5C9 18.2033 9.08797 17.9133 9.2528 17.6666C9.41762 17.42 9.65189 17.2277 9.92597 17.1142C10.2001 17.0007 10.5017 16.9709 10.7926 17.0288C11.0836 17.0867 11.3509 17.2296 11.5607 17.4393C11.7704 17.6491 11.9133 17.9164 11.9712 18.2074C12.0291 18.4983 11.9994 18.7999 11.8858 19.074C11.7723 19.3481 11.58 19.5824 11.3334 19.7472C11.0867 19.912 10.7967 20 10.5 20C10.1022 20 9.72064 19.842 9.43934 19.5607C9.15804 19.2794 9 18.8978 9 18.5Z" fill="#76B043"/>
<path d="M24 18.5C24 17.8078 23.7947 17.1311 23.4101 16.5555C23.0256 15.9799 22.4789 15.5313 21.8394 15.2664C21.1999 15.0015 20.4961 14.9322 19.8172 15.0673C19.1383 15.2023 18.5146 15.5356 18.0251 16.0251C17.5356 16.5146 17.2023 17.1383 17.0673 17.8172C16.9322 18.4961 17.0015 19.1999 17.2664 19.8394C17.5313 20.4789 17.9799 21.0256 18.5555 21.4101C19.1311 21.7947 19.8078 22 20.5 22C21.4283 22 22.3185 21.6313 22.9749 20.9749C23.6313 20.3185 24 19.4283 24 18.5ZM20.5 20C20.2033 20 19.9133 19.912 19.6666 19.7472C19.42 19.5824 19.2277 19.3481 19.1142 19.074C19.0007 18.7999 18.9709 18.4983 19.0288 18.2074C19.0867 17.9164 19.2296 17.6491 19.4393 17.4393C19.6491 17.2296 19.9164 17.0867 20.2074 17.0288C20.4983 16.9709 20.7999 17.0007 21.074 17.1142C21.3481 17.2277 21.5824 17.42 21.7472 17.6666C21.912 17.9133 22 18.2033 22 18.5C22 18.8978 21.842 19.2794 21.5607 19.5607C21.2794 19.842 20.8978 20 20.5 20Z" fill="#76B043"/>
<path d="M1 2H4.36L8.05 13.07C8.11709 13.2686 8.2449 13.4411 8.41537 13.5632C8.58584 13.6852 8.79036 13.7505 9 13.75H22C22.2096 13.7505 22.4142 13.6852 22.5846 13.5632C22.7551 13.4411 22.8829 13.2686 22.95 13.07L25.95 4.07C25.9996 3.91961 26.0128 3.7596 25.9884 3.60314C25.9641 3.44667 25.9029 3.29822 25.81 3.17C25.718 3.04076 25.5965 2.93527 25.4557 2.86224C25.3148 2.7892 25.1586 2.75073 25 2.75H15.5C15.2348 2.75 14.9804 2.85536 14.7929 3.04289C14.6054 3.23043 14.5 3.48478 14.5 3.75C14.5 4.01522 14.6054 4.26957 14.7929 4.45711C14.9804 4.64464 15.2348 4.75 15.5 4.75H23.61L21.28 11.75H9.72L6 0.68C5.93462 0.486162 5.81136 0.317038 5.64685 0.195444C5.48234 0.07385 5.28449 0.00563499 5.08 0H1C0.734784 0 0.48043 0.105357 0.292893 0.292893C0.105357 0.48043 0 0.734784 0 1C0 1.26522 0.105357 1.51957 0.292893 1.70711C0.48043 1.89464 0.734784 2 1 2Z" fill="#76B043"/>
</svg>
