<svg width="20" height="24" viewBox="0 0 20 24" fill="none" xmlns="http://www.w3.org/2000/svg">
<path d="M19 3.5H16C16 2.70435 15.6839 1.94129 15.1213 1.37868C14.5587 0.816071 13.7956 0.5 13 0.5H7C6.20435 0.5 5.44129 0.816071 4.87868 1.37868C4.31607 1.94129 4 2.70435 4 3.5H1C0.734784 3.5 0.48043 3.60536 0.292893 3.79289C0.105357 3.98043 0 4.23478 0 4.5C0 4.76522 0.105357 5.01957 0.292893 5.20711C0.48043 5.39464 0.734784 5.5 1 5.5H19C19.2652 5.5 19.5196 5.39464 19.7071 5.20711C19.8946 5.01957 20 4.76522 20 4.5C20 4.23478 19.8946 3.98043 19.7071 3.79289C19.5196 3.60536 19.2652 3.5 19 3.5Z" fill="black"/>
<path d="M8 19.5C8.26522 19.5 8.51957 19.3946 8.70711 19.2071C8.89464 19.0196 9 18.7652 9 18.5V12.5C9 12.2348 8.89464 11.9804 8.70711 11.7929C8.51957 11.6054 8.26522 11.5 8 11.5C7.73478 11.5 7.48043 11.6054 7.29289 11.7929C7.10536 11.9804 7 12.2348 7 12.5V18.5C7 18.7652 7.10536 19.0196 7.29289 19.2071C7.48043 19.3946 7.73478 19.5 8 19.5Z" fill="black"/>
<path d="M12 19.5C12.2652 19.5 12.5196 19.3946 12.7071 19.2071C12.8946 19.0196 13 18.7652 13 18.5V12.5C13 12.2348 12.8946 11.9804 12.7071 11.7929C12.5196 11.6054 12.2652 11.5 12 11.5C11.7348 11.5 11.4804 11.6054 11.2929 11.7929C11.1054 11.9804 11 12.2348 11 12.5V18.5C11 18.7652 11.1054 19.0196 11.2929 19.2071C11.4804 19.3946 11.7348 19.5 12 19.5Z" fill="black"/>
<path d="M15 23.5C15.7956 23.5 16.5587 23.1839 17.1213 22.6213C17.6839 22.0587 18 21.2956 18 20.5V8.5C18 8.23478 17.8946 7.98043 17.7071 7.79289C17.5196 7.60536 17.2652 7.5 17 7.5H3C2.73478 7.5 2.48043 7.60536 2.29289 7.79289C2.10536 7.98043 2 8.23478 2 8.5V20.5C2 21.2956 2.31607 22.0587 2.87868 22.6213C3.44129 23.1839 4.20435 23.5 5 23.5H15ZM4 20.5V9.5H16V20.5C16 20.7652 15.8946 21.0196 15.7071 21.2071C15.5196 21.3946 15.2652 21.5 15 21.5H5C4.73478 21.5 4.48043 21.3946 4.29289 21.2071C4.10536 21.0196 4 20.7652 4 20.5Z" fill="black"/>
</svg>
