<svg width="16" height="17" viewBox="0 0 16 17" fill="none" xmlns="http://www.w3.org/2000/svg">
<path d="M7 7V16C7 16.2652 7.10536 16.5196 7.29289 16.7071C7.48043 16.8946 7.73479 17 8 17C8.26522 17 8.51957 16.8946 8.70711 16.7071C8.89465 16.5196 9 16.2652 9 16V7C9 6.73478 8.89465 6.48043 8.70711 6.29289C8.51957 6.10536 8.26522 6 8 6C7.73479 6 7.48043 6.10536 7.29289 6.29289C7.10536 6.48043 7 6.73478 7 7Z" fill="black"/>
<path d="M14 9C14.1316 9.00076 14.2621 8.97554 14.3839 8.92577C14.5057 8.87601 14.6166 8.80268 14.71 8.71C14.8037 8.61704 14.8781 8.50644 14.9289 8.38458C14.9797 8.26272 15.0058 8.13201 15.0058 8C15.0058 7.86799 14.9797 7.73728 14.9289 7.61542C14.8781 7.49356 14.8037 7.38296 14.71 7.29L8.71 1.29C8.61704 1.19627 8.50644 1.12188 8.38458 1.07111C8.26272 1.02034 8.13201 0.994202 8 0.994202C7.86799 0.994202 7.73728 1.02034 7.61543 1.07111C7.49357 1.12188 7.38297 1.19627 7.29 1.29L1.29 7.29C1.1017 7.4783 0.995911 7.7337 0.995911 8C0.995911 8.2663 1.1017 8.5217 1.29 8.71C1.47831 8.8983 1.7337 9.00409 2 9.00409C2.2663 9.00409 2.5217 8.8983 2.71 8.71L8 3.41L13.29 8.71C13.3834 8.80268 13.4943 8.87601 13.6161 8.92577C13.7379 8.97554 13.8684 9.00076 14 9Z" fill="black"/>
</svg>
