<svg width="28" height="19" viewBox="0 0 28 19" fill="none" xmlns="http://www.w3.org/2000/svg">
<path d="M14 13C15.6569 13 17 11.6568 17 9.99996C17 8.34311 15.6569 6.99996 14 6.99996C12.3431 6.99996 11 8.34311 11 9.99996C11 11.6568 12.3431 13 14 13Z" fill="black"/>
<path d="M14 19C16.919 19.0004 19.7748 18.1491 22.2172 16.5505C24.6595 14.9518 26.5824 12.6753 27.75 9.99996C26.5832 7.32364 24.6606 5.04602 22.2182 3.44641C19.7758 1.8468 16.9196 0.994751 14 0.994751C11.0804 0.994751 8.22421 1.8468 5.78178 3.44641C3.33935 5.04602 1.41684 7.32364 0.25 9.99996C1.41762 12.6753 3.34047 14.9518 5.78284 16.5505C8.22521 18.1491 11.081 19.0004 14 19ZM14 2.99996C16.38 2.9986 18.7147 3.65063 20.7496 4.88498C22.7845 6.11932 24.4415 7.88861 25.54 9.99996C24.4435 12.114 22.7873 13.8862 20.7523 15.1231C18.7172 16.3601 16.3815 17.0143 14 17.0143C11.6185 17.0143 9.28278 16.3601 7.24774 15.1231C5.21269 13.8862 3.55652 12.114 2.46 9.99996C3.55847 7.88861 5.21547 6.11932 7.25037 4.88498C9.28528 3.65063 11.62 2.9986 14 2.99996Z" fill="black"/>
</svg>
